<!-- icon666.com - MILLIONS vector ICONS FREE --><svg viewBox="-20 1 511 511.99998" xmlns="http://www.w3.org/2000/svg"><path d="m248.375 151.4375c-22.925781 53.550781-27.265625 110.382812-15.910156 163.308594 1.5 6.992187 9.429687 10.386718 15.523437 6.644531 46.132813-28.316406 84.261719-70.6875 107.183594-124.234375s27.261719-110.382812 15.90625-163.308594c-1.5-6.988281-9.429687-10.382812-15.523437-6.644531-46.132813 28.316406-84.257813 70.6875-107.179688 124.234375zm0 0" fill="#0f26ce"></path><path d="m119.515625 194.382812c21.65625 54.070313 58.773437 97.328126 104.226563 126.722657 6.003906 3.882812 14.011718.675781 15.675781-6.277344 12.597656-52.644531 9.597656-109.5625-12.058594-163.636719-21.65625-54.074218-58.773437-97.328125-104.226563-126.722656-6.003906-3.882812-14.011718-.675781-15.675781 6.277344-12.597656 52.644531-9.597656 109.5625 12.058594 163.636718zm0 0" fill="#0f26ce"></path><path d="m177.695312 160.765625c0 58.25 18.378907 112.203125 49.644532 156.390625 4.128906 5.835938 12.753906 5.835938 16.882812 0 31.269532-44.1875 49.644532-98.140625 49.644532-156.390625 0-58.246094-18.375-112.203125-49.644532-156.386719-4.128906-5.839844-12.753906-5.839844-16.882812 0-31.269532 44.183594-49.644532 98.140625-49.644532 156.386719zm0 0" fill="#3a47ef"></path><path d="m177.695312 160.765625c0 58.25 18.378907 112.203125 49.644532 156.390625 4.128906 5.835938 12.753906 5.835938 16.882812 0 31.269532-44.1875 49.644532-98.140625 49.644532-156.390625 0-58.246094-18.375-112.203125-49.644532-156.386719-4.128906-5.839844-12.753906-5.839844-16.882812 0-31.269532 44.183594-49.644532 98.140625-49.644532 156.386719zm0 0" fill="#3a47ef"></path><path d="m218.902344 160.765625c0-50.226563 13.671875-97.253906 37.484375-137.585937-3.804688-6.441407-7.855469-12.71875-12.164063-18.800782-4.128906-5.839844-12.753906-5.839844-16.882812 0-31.269532 44.183594-49.644532 98.140625-49.644532 156.386719 0 58.25 18.378907 112.203125 49.644532 156.390625 4.128906 5.835938 12.753906 5.835938 16.882812 0 4.308594-6.085938 8.359375-12.359375 12.164063-18.804688-23.8125-40.332031-37.484375-87.359374-37.484375-137.585937zm0 0" fill="#0f26ce"></path><path d="m76.136719 250.953125c41.1875 41.1875 92.332031 66.347656 145.6875 75.484375 7.046875 1.207031 13.144531-4.894531 11.9375-11.941406-9.136719-53.355469-34.292969-104.5-75.480469-145.6875s-92.332031-66.34375-145.6875-75.480469c-7.046875-1.207031-13.148438 4.894531-11.941406 11.941406 9.136718 53.351563 34.296875 104.496094 75.484375 145.683594zm0 0" fill="#5656fc"></path><path d="m105.273438 221.816406c-35.515626-35.515625-59.101563-78.4375-70.785157-123.792968-7.242187-1.863282-14.546875-3.4375-21.894531-4.695313-7.046875-1.207031-13.144531 4.890625-11.9375 11.9375 9.132812 53.355469 34.292969 104.5 75.480469 145.6875s92.332031 66.347656 145.6875 75.484375c7.046875 1.207031 13.144531-4.894531 11.9375-11.941406-1.257813-7.347656-2.832031-14.652344-4.695313-21.894532-45.355468-11.683593-88.277344-35.269531-123.792968-70.785156zm0 0" fill="#3a47ef"></path><path d="m313.28125 168.808594c-41.1875 41.1875-66.34375 92.332031-75.480469 145.6875-1.207031 7.046875 4.890625 13.148437 11.941407 11.941406 53.351562-9.136719 104.496093-34.296875 145.683593-75.484375 41.191407-41.1875 66.347657-92.332031 75.484375-145.6875 1.207032-7.046875-4.894531-13.144531-11.941406-11.9375-53.351562 9.136719-104.5 34.292969-145.6875 75.480469zm0 0" fill="#5656fc"></path><path d="m342.421875 197.945312c35.511719-35.511718 78.433594-59.097656 123.789063-70.78125 1.867187-7.246093 3.4375-14.546874 4.699218-21.894531 1.207032-7.046875-4.894531-13.148437-11.941406-11.941406-53.351562 9.136719-104.5 34.292969-145.6875 75.480469s-66.34375 92.335937-75.480469 145.6875c-1.207031 7.046875 4.890625 13.148437 11.941407 11.941406 7.347656-1.257812 14.648437-2.832031 21.894531-4.699219 11.683593-45.355469 35.269531-88.273437 70.785156-123.792969zm0 0" fill="#3a47ef"></path><path d="m194.65625 256.105469h82.414062v255.894531h-82.414062zm0 0" fill="#70ab2a"></path><path d="m194.65625 256.105469h41.203125v255.894531h-41.203125zm0 0" fill="#499421"></path><path d="m383.738281 256.105469h-295.753906c-5.976563 0-10.695313 5.074219-10.28125 11.035156 5.683594 82.292969 74.449219 147.507813 158.160156 147.507813 83.710938 0 152.476563-65.214844 158.160157-147.507813.410156-5.960937-4.304688-11.035156-10.285157-11.035156zm0 0" fill="#96c133"></path><path d="m235.859375 335.703125c-9.773437 0-17.695313-7.925781-17.695313-17.699219v-10.246094c0-1.691406 1.367188-3.0625 3.058594-3.0625h29.277344c1.691406 0 3.0625 1.371094 3.0625 3.0625v10.246094c0 9.773438-7.925781 17.699219-17.703125 17.699219zm0 0" fill="#262b3b"></path><path d="m118.527344 256.105469h-30.542969c-5.976563 0-10.695313 5.074219-10.28125 11.035156 5.683594 82.292969 74.449219 147.507813 158.160156 147.507813 6.972657 0 13.84375-.464844 20.582031-1.339844-77.710937-10.140625-137.917968-76.769532-137.917968-157.203125zm0 0" fill="#70ab2a"></path><path d="m301.40625 313.042969c-4.144531 0-7.5-3.359375-7.5-7.5v-11.699219c0-4.144531 3.355469-7.5 7.5-7.5 4.140625 0 7.5 3.355469 7.5 7.5v11.699219c0 4.140625-3.359375 7.5-7.5 7.5zm0 0" fill="#262b3b"></path><path d="m170.320312 313.042969c-4.144531 0-7.5-3.359375-7.5-7.5v-11.699219c0-4.144531 3.355469-7.5 7.5-7.5 4.140626 0 7.5 3.355469 7.5 7.5v11.699219c0 4.140625-3.359374 7.5-7.5 7.5zm0 0" fill="#262b3b"></path><g fill="#f2ede1"><path d="m307.246094 335.15625h-11.683594c-4.144531 0-7.5-3.359375-7.5-7.5 0-4.144531 3.355469-7.5 7.5-7.5h11.683594c4.144531 0 7.5 3.355469 7.5 7.5 0 4.140625-3.355469 7.5-7.5 7.5zm0 0"></path><path d="m176.164062 335.15625h-11.6875c-4.144531 0-7.5-3.359375-7.5-7.5 0-4.144531 3.355469-7.5 7.5-7.5h11.6875c4.140626 0 7.5 3.355469 7.5 7.5 0 4.140625-3.359374 7.5-7.5 7.5zm0 0"></path></g></svg>